ffmpeg started on 2025-07-06 at 18:17:29
Report written to "D:\Convert\FFMetrics\reports\psnr_report-6.txt"
Log level: 32
Command line:
ffmpeg -hide_banner -nostdin -i "G:\\\xc0\xed\xe8\xec\xe5\\\xce\xed\xe3\xee\xe8\xed\xe3\xe8\\!_37_\xc7\xe8\xec\xe0_2025\\JamClub\\\xc3\xee\xeb\xf3\xe1\xe0\xff \xf8\xea\xe0\xf2\xf3\xeb\xea\xe0\\JamClub_Ao_no_Hako_22_1080p_HEVC.mkv" -i "G:\\\xc0\xed\xe8\xec\xe5\\\xce\xed\xe3\xee\xe8\xed\xe3\xe8\\!_37_\xc7\xe8\xec\xe0_2025\\JamClub\\\xc3\xee\xeb\xf3\xe1\xe0\xff \xf8\xea\xe0\xf2\xf3\xeb\xea\xe0\\JamClub_Ao_no_Hako_22_1080p.mp4" -lavfi "[0:v]settb=AVTB,setpts=PTS-STARTPTS,format=pix_fmts=yuv420p10,fps=24000/1001,scale=1920:1080:flags=bicubic[main];[1:v]settb=AVTB,setpts=PTS-STARTPTS,format=pix_fmts=yuv420p,fps=24000/1001,scale=1920:1080:flags=bicubic[ref];[main][ref]psnr=eof_action=endall:stats_file='D\\:/Convert/FFMetrics/logs/psnr_logfile-6.txt'" -f null -
Input #0, matroska,webm, from 'G:\Аниме\Онгоинги\!_37_Зима_2025\JamClub\Голубая шкатулка\JamClub_Ao_no_Hako_22_1080p_HEVC.mkv':
  Metadata:
    COMPATIBLE_BRANDS: isomiso2avc1mp41
    MAJOR_BRAND     : isom
    MINOR_VERSION   : 512
    ENCODER         : Lavf61.7.100
  Duration: 00:23:59.25, start: -0.001000, bitrate: 1203 kb/s
  Stream #0:0: Video: hevc (Main 10), yuv420p10le(tv, bt709, progressive), 1920x1080 [SAR 1:1 DAR 16:9], 23.98 fps, 23.98 tbr, 1k tbn (default)
      Metadata:
        HANDLER_NAME    : VideoHandler
        VENDOR_ID       : [0][0][0][0]
        ENCODER         : Lavc61.19.100 libx265
        BPS             : 1006314
        DURATION        : 00:23:59.187708333
        NUMBER_OF_FRAMES: 34506
        NUMBER_OF_BYTES : 181034404
        _STATISTICS_WRITING_APP: mkvpropedit v66.0.0 ('Josie') 64-bit
        _STATISTICS_WRITING_DATE_UTC: 2025-07-06 11:02:21
        _STATISTICS_TAGS: BPS DURATION NUMBER_OF_FRAMES NUMBER_OF_BYTES
  Stream #0:1(eng): Audio: aac (LC), 48000 Hz, stereo, fltp (default)
      Metadata:
        HANDLER_NAME    : SoundHandler
        VENDOR_ID       : [0][0][0][0]
        ENCODER         : Lavc61.19.100 aac
        BPS             : 193131
        DURATION        : 00:23:59.213000000
        NUMBER_OF_FRAMES: 67464
        NUMBER_OF_BYTES : 34744676
        _STATISTICS_WRITING_APP: mkvpropedit v66.0.0 ('Josie') 64-bit
        _STATISTICS_WRITING_DATE_UTC: 2025-07-06 11:02:21
        _STATISTICS_TAGS: BPS DURATION NUMBER_OF_FRAMES NUMBER_OF_BYTES
Input #1, mov,mp4,m4a,3gp,3g2,mj2, from 'G:\Аниме\Онгоинги\!_37_Зима_2025\JamClub\Голубая шкатулка\JamClub_Ao_no_Hako_22_1080p.mp4':
  Metadata:
    major_brand     : isom
    minor_version   : 512
    compatible_brands: isomiso2avc1mp41
    encoder         : Lavf60.16.100
  Duration: 00:23:59.23, start: 0.000000, bitrate: 4320 kb/s
  Stream #1:0[0x1](und): Video: h264 (High) (avc1 / 0x31637661), yuv420p(progressive), 1920x1080 [SAR 1:1 DAR 16:9], 4122 kb/s, 23.98 fps, 23.98 tbr, 90k tbn (default)
      Metadata:
        handler_name    : VideoHandler
        vendor_id       : [0][0][0][0]
  Stream #1:1[0x2](eng): Audio: aac (LC) (mp4a / 0x6134706D), 48000 Hz, stereo, fltp, 191 kb/s (default)
      Metadata:
        handler_name    : SoundHandler
        vendor_id       : [0][0][0][0]
Stream mapping:
  Stream #0:0 (hevc) -> settb:default
  Stream #1:0 (h264) -> settb:default
  psnr:default -> Stream #0:0 (wrapped_avframe)
  Stream #0:1 -> #0:1 (aac (native) -> pcm_s16le (native))
Output #0, null, to 'pipe:':
  Metadata:
    COMPATIBLE_BRANDS: isomiso2avc1mp41
    MAJOR_BRAND     : isom
    MINOR_VERSION   : 512
    encoder         : Lavf61.7.100
  Stream #0:0: Video: wrapped_avframe, yuv420p10le(tv, bt709, progressive), 1920x1080 [SAR 1:1 DAR 16:9], q=2-31, 200 kb/s, 23.98 fps, 23.98 tbn
      Metadata:
        encoder         : Lavc61.19.100 wrapped_avframe
  Stream #0:1(eng): Audio: pcm_s16le, 48000 Hz, stereo, s16, 1536 kb/s (default)
      Metadata:
        HANDLER_NAME    : SoundHandler
        VENDOR_ID       : [0][0][0][0]
        _STATISTICS_TAGS: BPS DURATION NUMBER_OF_FRAMES NUMBER_OF_BYTES
        BPS             : 193131
        DURATION        : 00:23:59.213000000
        NUMBER_OF_FRAMES: 67464
        NUMBER_OF_BYTES : 34744676
        _STATISTICS_WRITING_APP: mkvpropedit v66.0.0 ('Josie') 64-bit
        _STATISTICS_WRITING_DATE_UTC: 2025-07-06 11:02:21
        encoder         : Lavc61.19.100 pcm_s16le
frame=  107 fps=0.0 q=-0.0 size=N/A time=00:00:04.46 bitrate=N/A speed=8.72x    frame=  264 fps=258 q=-0.0 size=N/A time=00:00:11.01 bitrate=N/A speed=10.8x    frame=  463 fps=299 q=-0.0 size=N/A time=00:00:19.31 bitrate=N/A speed=12.5x    frame=  724 fps=351 q=-0.0 size=N/A time=00:00:30.19 bitrate=N/A speed=14.6x    frame=  985 fps=383 q=-0.0 size=N/A time=00:00:41.08 bitrate=N/A speed=  16x    frame= 1249 fps=403 q=-0.0 size=N/A time=00:00:52.09 bitrate=N/A speed=16.8x    frame= 1512 fps=419 q=-0.0 size=N/A time=00:01:03.06 bitrate=N/A speed=17.5x    frame= 1742 fps=422 q=-0.0 size=N/A time=00:01:12.65 bitrate=N/A speed=17.6x    frame= 2011 fps=434 q=-0.0 size=N/A time=00:01:23.87 bitrate=N/A speed=18.1x    frame= 2260 fps=438 q=-0.0 size=N/A time=00:01:34.26 bitrate=N/A speed=18.3x    frame= 2509 fps=442 q=-0.0 size=N/A time=00:01:44.64 bitrate=N/A speed=18.4x    frame= 2758 fps=446 q=-0.0 size=N/A time=00:01:55.03 bitrate=N/A speed=18.6x    frame= 3010 fps=449 q=-0.0 size=N/A time=00:02:05.54 bitrate=N/A speed=18.7x    frame= 3280 fps=454 q=-0.0 size=N/A time=00:02:16.80 bitrate=N/A speed=18.9x    frame= 3481 fps=450 q=-0.0 size=N/A time=00:02:25.18 bitrate=N/A speed=18.8x    frame= 3700 fps=449 q=-0.0 size=N/A time=00:02:34.32 bitrate=N/A speed=18.7x    frame= 3920 fps=448 q=-0.0 size=N/A time=00:02:43.49 bitrate=N/A speed=18.7x    frame= 4140 fps=446 q=-0.0 size=N/A time=00:02:52.67 bitrate=N/A speed=18.6x    frame= 4396 fps=449 q=-0.0 size=N/A time=00:03:03.34 bitrate=N/A speed=18.7x    frame= 4571 fps=443 q=-0.0 size=N/A time=00:03:10.64 bitrate=N/A speed=18.5x    frame= 4807 fps=444 q=-0.0 size=N/A time=00:03:20.49 bitrate=N/A speed=18.5x    frame= 5042 fps=444 q=-0.0 size=N/A time=00:03:30.29 bitrate=N/A speed=18.5x    frame= 5279 fps=445 q=-0.0 size=N/A time=00:03:40.17 bitrate=N/A speed=18.6x    frame= 5497 fps=444 q=-0.0 size=N/A time=00:03:49.27 bitrate=N/A speed=18.5x    frame= 5711 fps=443 q=-0.0 size=N/A time=00:03:58.19 bitrate=N/A speed=18.5x    frame= 5919 fps=441 q=-0.0 size=N/A time=00:04:06.87 bitrate=N/A speed=18.4x    frame= 6176 fps=444 q=-0.0 size=N/A time=00:04:17.59 bitrate=N/A speed=18.5x    frame= 6440 fps=446 q=-0.0 size=N/A time=00:04:28.60 bitrate=N/A speed=18.6x    frame= 6713 fps=449 q=-0.0 size=N/A time=00:04:39.98 bitrate=N/A speed=18.7x    frame= 6977 fps=451 q=-0.0 size=N/A time=00:04:50.99 bitrate=N/A speed=18.8x    frame= 7235 fps=453 q=-0.0 size=N/A time=00:05:01.75 bitrate=N/A speed=18.9x    frame= 7494 fps=454 q=-0.0 size=N/A time=00:05:12.56 bitrate=N/A speed=  19x    frame= 7775 fps=457 q=-0.0 size=N/A time=00:05:24.28 bitrate=N/A speed=19.1x    frame= 8026 fps=458 q=-0.0 size=N/A time=00:05:34.75 bitrate=N/A speed=19.1x    frame= 8288 fps=459 q=-0.0 size=N/A time=00:05:45.67 bitrate=N/A speed=19.2x    frame= 8547 fps=460 q=-0.0 size=N/A time=00:05:56.48 bitrate=N/A speed=19.2x    frame= 8806 fps=462 q=-0.0 size=N/A time=00:06:07.28 bitrate=N/A speed=19.2x    frame= 9080 fps=463 q=-0.0 size=N/A time=00:06:18.71 bitrate=N/A speed=19.3x    frame= 9341 fps=465 q=-0.0 size=N/A time=00:06:29.59 bitrate=N/A speed=19.4x    frame= 9626 fps=467 q=-0.0 size=N/A time=00:06:41.48 bitrate=N/A speed=19.5x    frame= 9903 fps=468 q=-0.0 size=N/A time=00:06:53.03 bitrate=N/A speed=19.5x    frame=10160 fps=469 q=-0.0 size=N/A time=00:07:03.75 bitrate=N/A speed=19.6x    frame=10430 fps=471 q=-0.0 size=N/A time=00:07:15.01 bitrate=N/A speed=19.6x    frame=10685 fps=471 q=-0.0 size=N/A time=00:07:25.65 bitrate=N/A speed=19.6x    frame=10954 fps=472 q=-0.0 size=N/A time=00:07:36.87 bitrate=N/A speed=19.7x    frame=11216 fps=473 q=-0.0 size=N/A time=00:07:47.80 bitrate=N/A speed=19.7x    frame=11452 fps=473 q=-0.0 size=N/A time=00:07:57.64 bitrate=N/A speed=19.7x    frame=11725 fps=474 q=-0.0 size=N/A time=00:08:09.03 bitrate=N/A speed=19.8x    frame=11976 fps=474 q=-0.0 size=N/A time=00:08:19.49 bitrate=N/A speed=19.8x    frame=12239 fps=475 q=-0.0 size=N/A time=00:08:30.46 bitrate=N/A speed=19.8x    frame=12491 fps=475 q=-0.0 size=N/A time=00:08:40.97 bitrate=N/A speed=19.8x    frame=12754 fps=476 q=-0.0 size=N/A time=00:08:51.94 bitrate=N/A speed=19.8x    frame=13019 fps=476 q=-0.0 size=N/A time=00:09:03.00 bitrate=N/A speed=19.9x    frame=13277 fps=477 q=-0.0 size=N/A time=00:09:13.76 bitrate=N/A speed=19.9x    frame=13566 fps=478 q=-0.0 size=N/A time=00:09:25.81 bitrate=N/A speed=19.9x    frame=13821 fps=479 q=-0.0 size=N/A time=00:09:36.45 bitrate=N/A speed=  20x    frame=14052 fps=478 q=-0.0 size=N/A time=00:09:46.08 bitrate=N/A speed=19.9x    frame=14294 fps=478 q=-0.0 size=N/A time=00:09:56.17 bitrate=N/A speed=19.9x    frame=14565 fps=479 q=-0.0 size=N/A time=00:10:07.48 bitrate=N/A speed=  20x    frame=14773 fps=477 q=-0.0 size=N/A time=00:10:16.15 bitrate=N/A speed=19.9x    frame=15020 fps=478 q=-0.0 size=N/A time=00:10:26.45 bitrate=N/A speed=19.9x    frame=15290 fps=478 q=-0.0 size=N/A time=00:10:37.72 bitrate=N/A speed=  20x    frame=15568 fps=479 q=-0.0 size=N/A time=00:10:49.31 bitrate=N/A speed=  20x    frame=15835 fps=480 q=-0.0 size=N/A time=00:11:00.45 bitrate=N/A speed=  20x    frame=16109 fps=481 q=-0.0 size=N/A time=00:11:11.87 bitrate=N/A speed=  20x    frame=16367 fps=481 q=-0.0 size=N/A time=00:11:22.64 bitrate=N/A speed=20.1x    frame=16623 fps=481 q=-0.0 size=N/A time=00:11:33.31 bitrate=N/A speed=20.1x    frame=16878 fps=481 q=-0.0 size=N/A time=00:11:43.95 bitrate=N/A speed=20.1x    frame=17120 fps=481 q=-0.0 size=N/A time=00:11:54.04 bitrate=N/A speed=20.1x    frame=17383 fps=482 q=-0.0 size=N/A time=00:12:05.01 bitrate=N/A speed=20.1x    frame=17626 fps=481 q=-0.0 size=N/A time=00:12:15.15 bitrate=N/A speed=20.1x    frame=17871 fps=481 q=-0.0 size=N/A time=00:12:25.36 bitrate=N/A speed=20.1x    frame=18116 fps=481 q=-0.0 size=N/A time=00:12:35.58 bitrate=N/A speed=20.1x    frame=18362 fps=481 q=-0.0 size=N/A time=00:12:45.84 bitrate=N/A speed=20.1x    frame=18602 fps=481 q=-0.0 size=N/A time=00:12:55.85 bitrate=N/A speed=20.1x    frame=18838 fps=481 q=-0.0 size=N/A time=00:13:05.70 bitrate=N/A speed=20.1x    frame=19087 fps=481 q=-0.0 size=N/A time=00:13:16.08 bitrate=N/A speed=20.1x    frame=19323 fps=480 q=-0.0 size=N/A time=00:13:25.93 bitrate=N/A speed=  20x    frame=19566 fps=480 q=-0.0 size=N/A time=00:13:36.06 bitrate=N/A speed=  20x    frame=19807 fps=480 q=-0.0 size=N/A time=00:13:46.11 bitrate=N/A speed=  20x    frame=20055 fps=480 q=-0.0 size=N/A time=00:13:56.46 bitrate=N/A speed=  20x    frame=20301 fps=480 q=-0.0 size=N/A time=00:14:06.72 bitrate=N/A speed=  20x    frame=20550 fps=480 q=-0.0 size=N/A time=00:14:17.10 bitrate=N/A speed=  20x    frame=20801 fps=480 q=-0.0 size=N/A time=00:14:27.57 bitrate=N/A speed=  20x    frame=21062 fps=480 q=-0.0 size=N/A time=00:14:38.46 bitrate=N/A speed=  20x    frame=21304 fps=480 q=-0.0 size=N/A time=00:14:48.55 bitrate=N/A speed=  20x    frame=21490 fps=479 q=-0.0 size=N/A time=00:14:56.31 bitrate=N/A speed=  20x    frame=21720 fps=479 q=-0.0 size=N/A time=00:15:05.90 bitrate=N/A speed=  20x    frame=21943 fps=478 q=-0.0 size=N/A time=00:15:15.20 bitrate=N/A speed=19.9x    frame=22117 fps=477 q=-0.0 size=N/A time=00:15:22.46 bitrate=N/A speed=19.9x    frame=22310 fps=476 q=-0.0 size=N/A time=00:15:30.51 bitrate=N/A speed=19.8x    frame=22533 fps=475 q=-0.0 size=N/A time=00:15:39.81 bitrate=N/A speed=19.8x    frame=22758 fps=475 q=-0.0 size=N/A time=00:15:49.19 bitrate=N/A speed=19.8x    frame=23008 fps=475 q=-0.0 size=N/A time=00:15:59.62 bitrate=N/A speed=19.8x    frame=23212 fps=474 q=-0.0 size=N/A time=00:16:08.13 bitrate=N/A speed=19.8x    frame=23429 fps=473 q=-0.0 size=N/A time=00:16:17.18 bitrate=N/A speed=19.7x    frame=23616 fps=472 q=-0.0 size=N/A time=00:16:24.98 bitrate=N/A speed=19.7x    frame=23866 fps=472 q=-0.0 size=N/A time=00:16:35.41 bitrate=N/A speed=19.7x    frame=24117 fps=472 q=-0.0 size=N/A time=00:16:45.87 bitrate=N/A speed=19.7x    frame=24371 fps=473 q=-0.0 size=N/A time=00:16:56.47 bitrate=N/A speed=19.7x    frame=24602 fps=472 q=-0.0 size=N/A time=00:17:06.10 bitrate=N/A speed=19.7x    frame=24823 fps=472 q=-0.0 size=N/A time=00:17:15.32 bitrate=N/A speed=19.7x    frame=25063 fps=472 q=-0.0 size=N/A time=00:17:25.33 bitrate=N/A speed=19.7x    frame=25325 fps=472 q=-0.0 size=N/A time=00:17:36.26 bitrate=N/A speed=19.7x    frame=25586 fps=473 q=-0.0 size=N/A time=00:17:47.14 bitrate=N/A speed=19.7x    frame=25838 fps=473 q=-0.0 size=N/A time=00:17:57.65 bitrate=N/A speed=19.7x    frame=26105 fps=473 q=-0.0 size=N/A time=00:18:08.79 bitrate=N/A speed=19.7x    frame=26370 fps=473 q=-0.0 size=N/A time=00:18:19.84 bitrate=N/A speed=19.7x    frame=26630 fps=474 q=-0.0 size=N/A time=00:18:30.69 bitrate=N/A speed=19.8x    frame=26885 fps=474 q=-0.0 size=N/A time=00:18:41.32 bitrate=N/A speed=19.8x    frame=27151 fps=474 q=-0.0 size=N/A time=00:18:52.42 bitrate=N/A speed=19.8x    frame=27428 fps=475 q=-0.0 size=N/A time=00:19:03.97 bitrate=N/A speed=19.8x    frame=27657 fps=475 q=-0.0 size=N/A time=00:19:13.52 bitrate=N/A speed=19.8x    frame=27922 fps=475 q=-0.0 size=N/A time=00:19:24.58 bitrate=N/A speed=19.8x    frame=28187 fps=475 q=-0.0 size=N/A time=00:19:35.63 bitrate=N/A speed=19.8x    frame=28444 fps=476 q=-0.0 size=N/A time=00:19:46.35 bitrate=N/A speed=19.8x    frame=28685 fps=475 q=-0.0 size=N/A time=00:19:56.40 bitrate=N/A speed=19.8x    frame=28934 fps=476 q=-0.0 size=N/A time=00:20:06.78 bitrate=N/A speed=19.8x    frame=29202 fps=476 q=-0.0 size=N/A time=00:20:17.96 bitrate=N/A speed=19.8x    frame=29417 fps=475 q=-0.0 size=N/A time=00:20:26.93 bitrate=N/A speed=19.8x    frame=29675 fps=476 q=-0.0 size=N/A time=00:20:37.69 bitrate=N/A speed=19.8x    frame=29906 fps=475 q=-0.0 size=N/A time=00:20:47.32 bitrate=N/A speed=19.8x    frame=30147 fps=475 q=-0.0 size=N/A time=00:20:57.38 bitrate=N/A speed=19.8x    frame=30390 fps=475 q=-0.0 size=N/A time=00:21:07.51 bitrate=N/A speed=19.8x    frame=30638 fps=475 q=-0.0 size=N/A time=00:21:17.85 bitrate=N/A speed=19.8x    frame=30857 fps=475 q=-0.0 size=N/A time=00:21:26.99 bitrate=N/A speed=19.8x    frame=31100 fps=475 q=-0.0 size=N/A time=00:21:37.12 bitrate=N/A speed=19.8x    frame=31338 fps=475 q=-0.0 size=N/A time=00:21:47.05 bitrate=N/A speed=19.8x    frame=31593 fps=475 q=-0.0 size=N/A time=00:21:57.69 bitrate=N/A speed=19.8x    frame=31877 fps=476 q=-0.0 size=N/A time=00:22:09.53 bitrate=N/A speed=19.8x    frame=32132 fps=476 q=-0.0 size=N/A time=00:22:20.17 bitrate=N/A speed=19.8x    frame=32393 fps=476 q=-0.0 size=N/A time=00:22:31.05 bitrate=N/A speed=19.9x    frame=32631 fps=476 q=-0.0 size=N/A time=00:22:40.98 bitrate=N/A speed=19.8x    frame=32857 fps=476 q=-0.0 size=N/A time=00:22:50.41 bitrate=N/A speed=19.8x    frame=33066 fps=475 q=-0.0 size=N/A time=00:22:59.12 bitrate=N/A speed=19.8x    frame=33242 fps=474 q=-0.0 size=N/A time=00:23:06.46 bitrate=N/A speed=19.8x    frame=33469 fps=474 q=-0.0 size=N/A time=00:23:15.93 bitrate=N/A speed=19.8x    frame=33684 fps=473 q=-0.0 size=N/A time=00:23:24.90 bitrate=N/A speed=19.7x    frame=33870 fps=473 q=-0.0 size=N/A time=00:23:32.66 bitrate=N/A speed=19.7x    frame=34066 fps=472 q=-0.0 size=N/A time=00:23:40.83 bitrate=N/A speed=19.7x    frame=34305 fps=472 q=-0.0 size=N/A time=00:23:50.80 bitrate=N/A speed=19.7x    [Parsed_psnr_10 @ 00000209715c14c0] PSNR y:47.744187 u:50.542975 v:50.350112 average:48.472413 min:29.325066 max:inf
[out#0/null @ 000002096b34df00] video:14827KiB audio:269856KiB subtitle:0KiB other streams:0KiB global headers:0KiB muxing overhead: unknown
frame=34506 fps=472 q=-0.0 Lsize=N/A time=00:23:59.18 bitrate=N/A speed=19.7x    
